o SYS_gridHelper
v -200 0 -200
v 200 0 -200
v -200 0 -200
v -200 0 200
v -200 0 -198
v 200 0 -198
v -198 0 -200
v -198 0 200
v -200 0 -196
v 200 0 -196
v -196 0 -200
v -196 0 200
v -200 0 -194
v 200 0 -194
v -194 0 -200
v -194 0 200
v -200 0 -192
v 200 0 -192
v -192 0 -200
v -192 0 200
v -200 0 -190
v 200 0 -190
v -190 0 -200
v -190 0 200
v -200 0 -188
v 200 0 -188
v -188 0 -200
v -188 0 200
v -200 0 -186
v 200 0 -186
v -186 0 -200
v -186 0 200
v -200 0 -184
v 200 0 -184
v -184 0 -200
v -184 0 200
v -200 0 -182
v 200 0 -182
v -182 0 -200
v -182 0 200
v -200 0 -180
v 200 0 -180
v -180 0 -200
v -180 0 200
v -200 0 -178
v 200 0 -178
v -178 0 -200
v -178 0 200
v -200 0 -176
v 200 0 -176
v -176 0 -200
v -176 0 200
v -200 0 -174
v 200 0 -174
v -174 0 -200
v -174 0 200
v -200 0 -172
v 200 0 -172
v -172 0 -200
v -172 0 200
v -200 0 -170
v 200 0 -170
v -170 0 -200
v -170 0 200
v -200 0 -168
v 200 0 -168
v -168 0 -200
v -168 0 200
v -200 0 -166
v 200 0 -166
v -166 0 -200
v -166 0 200
v -200 0 -164
v 200 0 -164
v -164 0 -200
v -164 0 200
v -200 0 -162
v 200 0 -162
v -162 0 -200
v -162 0 200
v -200 0 -160
v 200 0 -160
v -160 0 -200
v -160 0 200
v -200 0 -158
v 200 0 -158
v -158 0 -200
v -158 0 200
v -200 0 -156
v 200 0 -156
v -156 0 -200
v -156 0 200
v -200 0 -154
v 200 0 -154
v -154 0 -200
v -154 0 200
v -200 0 -152
v 200 0 -152
v -152 0 -200
v -152 0 200
v -200 0 -150
v 200 0 -150
v -150 0 -200
v -150 0 200
v -200 0 -148
v 200 0 -148
v -148 0 -200
v -148 0 200
v -200 0 -146
v 200 0 -146
v -146 0 -200
v -146 0 200
v -200 0 -144
v 200 0 -144
v -144 0 -200
v -144 0 200
v -200 0 -142
v 200 0 -142
v -142 0 -200
v -142 0 200
v -200 0 -140
v 200 0 -140
v -140 0 -200
v -140 0 200
v -200 0 -138
v 200 0 -138
v -138 0 -200
v -138 0 200
v -200 0 -136
v 200 0 -136
v -136 0 -200
v -136 0 200
v -200 0 -134
v 200 0 -134
v -134 0 -200
v -134 0 200
v -200 0 -132
v 200 0 -132
v -132 0 -200
v -132 0 200
v -200 0 -130
v 200 0 -130
v -130 0 -200
v -130 0 200
v -200 0 -128
v 200 0 -128
v -128 0 -200
v -128 0 200
v -200 0 -126
v 200 0 -126
v -126 0 -200
v -126 0 200
v -200 0 -124
v 200 0 -124
v -124 0 -200
v -124 0 200
v -200 0 -122
v 200 0 -122
v -122 0 -200
v -122 0 200
v -200 0 -120
v 200 0 -120
v -120 0 -200
v -120 0 200
v -200 0 -118
v 200 0 -118
v -118 0 -200
v -118 0 200
v -200 0 -116
v 200 0 -116
v -116 0 -200
v -116 0 200
v -200 0 -114
v 200 0 -114
v -114 0 -200
v -114 0 200
v -200 0 -112
v 200 0 -112
v -112 0 -200
v -112 0 200
v -200 0 -110
v 200 0 -110
v -110 0 -200
v -110 0 200
v -200 0 -108
v 200 0 -108
v -108 0 -200
v -108 0 200
v -200 0 -106
v 200 0 -106
v -106 0 -200
v -106 0 200
v -200 0 -104
v 200 0 -104
v -104 0 -200
v -104 0 200
v -200 0 -102
v 200 0 -102
v -102 0 -200
v -102 0 200
v -200 0 -100
v 200 0 -100
v -100 0 -200
v -100 0 200
v -200 0 -98
v 200 0 -98
v -98 0 -200
v -98 0 200
v -200 0 -96
v 200 0 -96
v -96 0 -200
v -96 0 200
v -200 0 -94
v 200 0 -94
v -94 0 -200
v -94 0 200
v -200 0 -92
v 200 0 -92
v -92 0 -200
v -92 0 200
v -200 0 -90
v 200 0 -90
v -90 0 -200
v -90 0 200
v -200 0 -88
v 200 0 -88
v -88 0 -200
v -88 0 200
v -200 0 -86
v 200 0 -86
v -86 0 -200
v -86 0 200
v -200 0 -84
v 200 0 -84
v -84 0 -200
v -84 0 200
v -200 0 -82
v 200 0 -82
v -82 0 -200
v -82 0 200
v -200 0 -80
v 200 0 -80
v -80 0 -200
v -80 0 200
v -200 0 -78
v 200 0 -78
v -78 0 -200
v -78 0 200
v -200 0 -76
v 200 0 -76
v -76 0 -200
v -76 0 200
v -200 0 -74
v 200 0 -74
v -74 0 -200
v -74 0 200
v -200 0 -72
v 200 0 -72
v -72 0 -200
v -72 0 200
v -200 0 -70
v 200 0 -70
v -70 0 -200
v -70 0 200
v -200 0 -68
v 200 0 -68
v -68 0 -200
v -68 0 200
v -200 0 -66
v 200 0 -66
v -66 0 -200
v -66 0 200
v -200 0 -64
v 200 0 -64
v -64 0 -200
v -64 0 200
v -200 0 -62
v 200 0 -62
v -62 0 -200
v -62 0 200
v -200 0 -60
v 200 0 -60
v -60 0 -200
v -60 0 200
v -200 0 -58
v 200 0 -58
v -58 0 -200
v -58 0 200
v -200 0 -56
v 200 0 -56
v -56 0 -200
v -56 0 200
v -200 0 -54
v 200 0 -54
v -54 0 -200
v -54 0 200
v -200 0 -52
v 200 0 -52
v -52 0 -200
v -52 0 200
v -200 0 -50
v 200 0 -50
v -50 0 -200
v -50 0 200
v -200 0 -48
v 200 0 -48
v -48 0 -200
v -48 0 200
v -200 0 -46
v 200 0 -46
v -46 0 -200
v -46 0 200
v -200 0 -44
v 200 0 -44
v -44 0 -200
v -44 0 200
v -200 0 -42
v 200 0 -42
v -42 0 -200
v -42 0 200
v -200 0 -40
v 200 0 -40
v -40 0 -200
v -40 0 200
v -200 0 -38
v 200 0 -38
v -38 0 -200
v -38 0 200
v -200 0 -36
v 200 0 -36
v -36 0 -200
v -36 0 200
v -200 0 -34
v 200 0 -34
v -34 0 -200
v -34 0 200
v -200 0 -32
v 200 0 -32
v -32 0 -200
v -32 0 200
v -200 0 -30
v 200 0 -30
v -30 0 -200
v -30 0 200
v -200 0 -28
v 200 0 -28
v -28 0 -200
v -28 0 200
v -200 0 -26
v 200 0 -26
v -26 0 -200
v -26 0 200
v -200 0 -24
v 200 0 -24
v -24 0 -200
v -24 0 200
v -200 0 -22
v 200 0 -22
v -22 0 -200
v -22 0 200
v -200 0 -20
v 200 0 -20
v -20 0 -200
v -20 0 200
v -200 0 -18
v 200 0 -18
v -18 0 -200
v -18 0 200
v -200 0 -16
v 200 0 -16
v -16 0 -200
v -16 0 200
v -200 0 -14
v 200 0 -14
v -14 0 -200
v -14 0 200
v -200 0 -12
v 200 0 -12
v -12 0 -200
v -12 0 200
v -200 0 -10
v 200 0 -10
v -10 0 -200
v -10 0 200
v -200 0 -8
v 200 0 -8
v -8 0 -200
v -8 0 200
v -200 0 -6
v 200 0 -6
v -6 0 -200
v -6 0 200
v -200 0 -4
v 200 0 -4
v -4 0 -200
v -4 0 200
v -200 0 -2
v 200 0 -2
v -2 0 -200
v -2 0 200
v -200 0 0
v 200 0 0
v 0 0 -200
v 0 0 200
v -200 0 2
v 200 0 2
v 2 0 -200
v 2 0 200
v -200 0 4
v 200 0 4
v 4 0 -200
v 4 0 200
v -200 0 6
v 200 0 6
v 6 0 -200
v 6 0 200
v -200 0 8
v 200 0 8
v 8 0 -200
v 8 0 200
v -200 0 10
v 200 0 10
v 10 0 -200
v 10 0 200
v -200 0 12
v 200 0 12
v 12 0 -200
v 12 0 200
v -200 0 14
v 200 0 14
v 14 0 -200
v 14 0 200
v -200 0 16
v 200 0 16
v 16 0 -200
v 16 0 200
v -200 0 18
v 200 0 18
v 18 0 -200
v 18 0 200
v -200 0 20
v 200 0 20
v 20 0 -200
v 20 0 200
v -200 0 22
v 200 0 22
v 22 0 -200
v 22 0 200
v -200 0 24
v 200 0 24
v 24 0 -200
v 24 0 200
v -200 0 26
v 200 0 26
v 26 0 -200
v 26 0 200
v -200 0 28
v 200 0 28
v 28 0 -200
v 28 0 200
v -200 0 30
v 200 0 30
v 30 0 -200
v 30 0 200
v -200 0 32
v 200 0 32
v 32 0 -200
v 32 0 200
v -200 0 34
v 200 0 34
v 34 0 -200
v 34 0 200
v -200 0 36
v 200 0 36
v 36 0 -200
v 36 0 200
v -200 0 38
v 200 0 38
v 38 0 -200
v 38 0 200
v -200 0 40
v 200 0 40
v 40 0 -200
v 40 0 200
v -200 0 42
v 200 0 42
v 42 0 -200
v 42 0 200
v -200 0 44
v 200 0 44
v 44 0 -200
v 44 0 200
v -200 0 46
v 200 0 46
v 46 0 -200
v 46 0 200
v -200 0 48
v 200 0 48
v 48 0 -200
v 48 0 200
v -200 0 50
v 200 0 50
v 50 0 -200
v 50 0 200
v -200 0 52
v 200 0 52
v 52 0 -200
v 52 0 200
v -200 0 54
v 200 0 54
v 54 0 -200
v 54 0 200
v -200 0 56
v 200 0 56
v 56 0 -200
v 56 0 200
v -200 0 58
v 200 0 58
v 58 0 -200
v 58 0 200
v -200 0 60
v 200 0 60
v 60 0 -200
v 60 0 200
v -200 0 62
v 200 0 62
v 62 0 -200
v 62 0 200
v -200 0 64
v 200 0 64
v 64 0 -200
v 64 0 200
v -200 0 66
v 200 0 66
v 66 0 -200
v 66 0 200
v -200 0 68
v 200 0 68
v 68 0 -200
v 68 0 200
v -200 0 70
v 200 0 70
v 70 0 -200
v 70 0 200
v -200 0 72
v 200 0 72
v 72 0 -200
v 72 0 200
v -200 0 74
v 200 0 74
v 74 0 -200
v 74 0 200
v -200 0 76
v 200 0 76
v 76 0 -200
v 76 0 200
v -200 0 78
v 200 0 78
v 78 0 -200
v 78 0 200
v -200 0 80
v 200 0 80
v 80 0 -200
v 80 0 200
v -200 0 82
v 200 0 82
v 82 0 -200
v 82 0 200
v -200 0 84
v 200 0 84
v 84 0 -200
v 84 0 200
v -200 0 86
v 200 0 86
v 86 0 -200
v 86 0 200
v -200 0 88
v 200 0 88
v 88 0 -200
v 88 0 200
v -200 0 90
v 200 0 90
v 90 0 -200
v 90 0 200
v -200 0 92
v 200 0 92
v 92 0 -200
v 92 0 200
v -200 0 94
v 200 0 94
v 94 0 -200
v 94 0 200
v -200 0 96
v 200 0 96
v 96 0 -200
v 96 0 200
v -200 0 98
v 200 0 98
v 98 0 -200
v 98 0 200
v -200 0 100
v 200 0 100
v 100 0 -200
v 100 0 200
v -200 0 102
v 200 0 102
v 102 0 -200
v 102 0 200
v -200 0 104
v 200 0 104
v 104 0 -200
v 104 0 200
v -200 0 106
v 200 0 106
v 106 0 -200
v 106 0 200
v -200 0 108
v 200 0 108
v 108 0 -200
v 108 0 200
v -200 0 110
v 200 0 110
v 110 0 -200
v 110 0 200
v -200 0 112
v 200 0 112
v 112 0 -200
v 112 0 200
v -200 0 114
v 200 0 114
v 114 0 -200
v 114 0 200
v -200 0 116
v 200 0 116
v 116 0 -200
v 116 0 200
v -200 0 118
v 200 0 118
v 118 0 -200
v 118 0 200
v -200 0 120
v 200 0 120
v 120 0 -200
v 120 0 200
v -200 0 122
v 200 0 122
v 122 0 -200
v 122 0 200
v -200 0 124
v 200 0 124
v 124 0 -200
v 124 0 200
v -200 0 126
v 200 0 126
v 126 0 -200
v 126 0 200
v -200 0 128
v 200 0 128
v 128 0 -200
v 128 0 200
v -200 0 130
v 200 0 130
v 130 0 -200
v 130 0 200
v -200 0 132
v 200 0 132
v 132 0 -200
v 132 0 200
v -200 0 134
v 200 0 134
v 134 0 -200
v 134 0 200
v -200 0 136
v 200 0 136
v 136 0 -200
v 136 0 200
v -200 0 138
v 200 0 138
v 138 0 -200
v 138 0 200
v -200 0 140
v 200 0 140
v 140 0 -200
v 140 0 200
v -200 0 142
v 200 0 142
v 142 0 -200
v 142 0 200
v -200 0 144
v 200 0 144
v 144 0 -200
v 144 0 200
v -200 0 146
v 200 0 146
v 146 0 -200
v 146 0 200
v -200 0 148
v 200 0 148
v 148 0 -200
v 148 0 200
v -200 0 150
v 200 0 150
v 150 0 -200
v 150 0 200
v -200 0 152
v 200 0 152
v 152 0 -200
v 152 0 200
v -200 0 154
v 200 0 154
v 154 0 -200
v 154 0 200
v -200 0 156
v 200 0 156
v 156 0 -200
v 156 0 200
v -200 0 158
v 200 0 158
v 158 0 -200
v 158 0 200
v -200 0 160
v 200 0 160
v 160 0 -200
v 160 0 200
v -200 0 162
v 200 0 162
v 162 0 -200
v 162 0 200
v -200 0 164
v 200 0 164
v 164 0 -200
v 164 0 200
v -200 0 166
v 200 0 166
v 166 0 -200
v 166 0 200
v -200 0 168
v 200 0 168
v 168 0 -200
v 168 0 200
v -200 0 170
v 200 0 170
v 170 0 -200
v 170 0 200
v -200 0 172
v 200 0 172
v 172 0 -200
v 172 0 200
v -200 0 174
v 200 0 174
v 174 0 -200
v 174 0 200
v -200 0 176
v 200 0 176
v 176 0 -200
v 176 0 200
v -200 0 178
v 200 0 178
v 178 0 -200
v 178 0 200
v -200 0 180
v 200 0 180
v 180 0 -200
v 180 0 200
v -200 0 182
v 200 0 182
v 182 0 -200
v 182 0 200
v -200 0 184
v 200 0 184
v 184 0 -200
v 184 0 200
v -200 0 186
v 200 0 186
v 186 0 -200
v 186 0 200
v -200 0 188
v 200 0 188
v 188 0 -200
v 188 0 200
v -200 0 190
v 200 0 190
v 190 0 -200
v 190 0 200
v -200 0 192
v 200 0 192
v 192 0 -200
v 192 0 200
v -200 0 194
v 200 0 194
v 194 0 -200
v 194 0 200
v -200 0 196
v 200 0 196
v 196 0 -200
v 196 0 200
v -200 0 198
v 200 0 198
v 198 0 -200
v 198 0 200
v -200 0 200
v 200 0 200
v 200 0 -200
v 200 0 200
l 1 2
l 3 4
l 5 6
l 7 8
l 9 10
l 11 12
l 13 14
l 15 16
l 17 18
l 19 20
l 21 22
l 23 24
l 25 26
l 27 28
l 29 30
l 31 32
l 33 34
l 35 36
l 37 38
l 39 40
l 41 42
l 43 44
l 45 46
l 47 48
l 49 50
l 51 52
l 53 54
l 55 56
l 57 58
l 59 60
l 61 62
l 63 64
l 65 66
l 67 68
l 69 70
l 71 72
l 73 74
l 75 76
l 77 78
l 79 80
l 81 82
l 83 84
l 85 86
l 87 88
l 89 90
l 91 92
l 93 94
l 95 96
l 97 98
l 99 100
l 101 102
l 103 104
l 105 106
l 107 108
l 109 110
l 111 112
l 113 114
l 115 116
l 117 118
l 119 120
l 121 122
l 123 124
l 125 126
l 127 128
l 129 130
l 131 132
l 133 134
l 135 136
l 137 138
l 139 140
l 141 142
l 143 144
l 145 146
l 147 148
l 149 150
l 151 152
l 153 154
l 155 156
l 157 158
l 159 160
l 161 162
l 163 164
l 165 166
l 167 168
l 169 170
l 171 172
l 173 174
l 175 176
l 177 178
l 179 180
l 181 182
l 183 184
l 185 186
l 187 188
l 189 190
l 191 192
l 193 194
l 195 196
l 197 198
l 199 200
l 201 202
l 203 204
l 205 206
l 207 208
l 209 210
l 211 212
l 213 214
l 215 216
l 217 218
l 219 220
l 221 222
l 223 224
l 225 226
l 227 228
l 229 230
l 231 232
l 233 234
l 235 236
l 237 238
l 239 240
l 241 242
l 243 244
l 245 246
l 247 248
l 249 250
l 251 252
l 253 254
l 255 256
l 257 258
l 259 260
l 261 262
l 263 264
l 265 266
l 267 268
l 269 270
l 271 272
l 273 274
l 275 276
l 277 278
l 279 280
l 281 282
l 283 284
l 285 286
l 287 288
l 289 290
l 291 292
l 293 294
l 295 296
l 297 298
l 299 300
l 301 302
l 303 304
l 305 306
l 307 308
l 309 310
l 311 312
l 313 314
l 315 316
l 317 318
l 319 320
l 321 322
l 323 324
l 325 326
l 327 328
l 329 330
l 331 332
l 333 334
l 335 336
l 337 338
l 339 340
l 341 342
l 343 344
l 345 346
l 347 348
l 349 350
l 351 352
l 353 354
l 355 356
l 357 358
l 359 360
l 361 362
l 363 364
l 365 366
l 367 368
l 369 370
l 371 372
l 373 374
l 375 376
l 377 378
l 379 380
l 381 382
l 383 384
l 385 386
l 387 388
l 389 390
l 391 392
l 393 394
l 395 396
l 397 398
l 399 400
l 401 402
l 403 404
l 405 406
l 407 408
l 409 410
l 411 412
l 413 414
l 415 416
l 417 418
l 419 420
l 421 422
l 423 424
l 425 426
l 427 428
l 429 430
l 431 432
l 433 434
l 435 436
l 437 438
l 439 440
l 441 442
l 443 444
l 445 446
l 447 448
l 449 450
l 451 452
l 453 454
l 455 456
l 457 458
l 459 460
l 461 462
l 463 464
l 465 466
l 467 468
l 469 470
l 471 472
l 473 474
l 475 476
l 477 478
l 479 480
l 481 482
l 483 484
l 485 486
l 487 488
l 489 490
l 491 492
l 493 494
l 495 496
l 497 498
l 499 500
l 501 502
l 503 504
l 505 506
l 507 508
l 509 510
l 511 512
l 513 514
l 515 516
l 517 518
l 519 520
l 521 522
l 523 524
l 525 526
l 527 528
l 529 530
l 531 532
l 533 534
l 535 536
l 537 538
l 539 540
l 541 542
l 543 544
l 545 546
l 547 548
l 549 550
l 551 552
l 553 554
l 555 556
l 557 558
l 559 560
l 561 562
l 563 564
l 565 566
l 567 568
l 569 570
l 571 572
l 573 574
l 575 576
l 577 578
l 579 580
l 581 582
l 583 584
l 585 586
l 587 588
l 589 590
l 591 592
l 593 594
l 595 596
l 597 598
l 599 600
l 601 602
l 603 604
l 605 606
l 607 608
l 609 610
l 611 612
l 613 614
l 615 616
l 617 618
l 619 620
l 621 622
l 623 624
l 625 626
l 627 628
l 629 630
l 631 632
l 633 634
l 635 636
l 637 638
l 639 640
l 641 642
l 643 644
l 645 646
l 647 648
l 649 650
l 651 652
l 653 654
l 655 656
l 657 658
l 659 660
l 661 662
l 663 664
l 665 666
l 667 668
l 669 670
l 671 672
l 673 674
l 675 676
l 677 678
l 679 680
l 681 682
l 683 684
l 685 686
l 687 688
l 689 690
l 691 692
l 693 694
l 695 696
l 697 698
l 699 700
l 701 702
l 703 704
l 705 706
l 707 708
l 709 710
l 711 712
l 713 714
l 715 716
l 717 718
l 719 720
l 721 722
l 723 724
l 725 726
l 727 728
l 729 730
l 731 732
l 733 734
l 735 736
l 737 738
l 739 740
l 741 742
l 743 744
l 745 746
l 747 748
l 749 750
l 751 752
l 753 754
l 755 756
l 757 758
l 759 760
l 761 762
l 763 764
l 765 766
l 767 768
l 769 770
l 771 772
l 773 774
l 775 776
l 777 778
l 779 780
l 781 782
l 783 784
l 785 786
l 787 788
l 789 790
l 791 792
l 793 794
l 795 796
l 797 798
l 799 800
l 801 802
l 803 804
o road
v 11.458807363954804 69.09954689194633 10
v 11.458807363954804 49.09954689194633 10
v 11.458807363954804 69.09954689194633 -10
v 11.458807363954804 49.09954689194633 10
v 11.458807363954804 49.09954689194633 -10
v 11.458807363954804 69.09954689194633 -10
v -8.541192636045196 69.09954689194633 -10
v -8.541192636045196 49.09954689194633 -10
v -8.541192636045196 69.09954689194633 10
v -8.541192636045196 49.09954689194633 -10
v -8.541192636045196 49.09954689194633 10
v -8.541192636045196 69.09954689194633 10
v -8.541192636045196 69.09954689194633 -10
v -8.541192636045196 69.09954689194633 10
v 11.458807363954804 69.09954689194633 -10
v -8.541192636045196 69.09954689194633 10
v 11.458807363954804 69.09954689194633 10
v 11.458807363954804 69.09954689194633 -10
v -8.541192636045196 49.09954689194633 10
v -8.541192636045196 49.09954689194633 -10
v 11.458807363954804 49.09954689194633 10
v -8.541192636045196 49.09954689194633 -10
v 11.458807363954804 49.09954689194633 -10
v 11.458807363954804 49.09954689194633 10
v -8.541192636045196 69.09954689194633 10
v -8.541192636045196 49.09954689194633 10
v 11.458807363954804 69.09954689194633 10
v -8.541192636045196 49.09954689194633 10
v 11.458807363954804 49.09954689194633 10
v 11.458807363954804 69.09954689194633 10
v 11.458807363954804 69.09954689194633 -10
v 11.458807363954804 49.09954689194633 -10
v -8.541192636045196 69.09954689194633 -10
v 11.458807363954804 49.09954689194633 -10
v -8.541192636045196 49.09954689194633 -10
v -8.541192636045196 69.09954689194633 -10
vt 0 1
vt 0 0
vt 1 1
vt 0 0
vt 1 0
vt 1 1
vt 0 1
vt 0 0
vt 1 1
vt 0 0
vt 1 0
vt 1 1
vt 0 1
vt 0 0
vt 1 1
vt 0 0
vt 1 0
vt 1 1
vt 0 1
vt 0 0
vt 1 1
vt 0 0
vt 1 0
vt 1 1
vt 0 1
vt 0 0
vt 1 1
vt 0 0
vt 1 0
vt 1 1
vt 0 1
vt 0 0
vt 1 1
vt 0 0
vt 1 0
vt 1 1
vn 1 0 0
vn 1 0 0
vn 1 0 0
vn 1 0 0
vn 1 0 0
vn 1 0 0
vn -1 0 0
vn -1 0 0
vn -1 0 0
vn -1 0 0
vn -1 0 0
vn -1 0 0
vn 0 1 0
vn 0 1 0
vn 0 1 0
vn 0 1 0
vn 0 1 0
vn 0 1 0
vn 0 -1 0
vn 0 -1 0
vn 0 -1 0
vn 0 -1 0
vn 0 -1 0
vn 0 -1 0
vn 0 0 1
vn 0 0 1
vn 0 0 1
vn 0 0 1
vn 0 0 1
vn 0 0 1
vn 0 0 -1
vn 0 0 -1
vn 0 0 -1
vn 0 0 -1
vn 0 0 -1
vn 0 0 -1
f 805/1/1 806/2/2 807/3/3
f 808/4/4 809/5/5 810/6/6
f 811/7/7 812/8/8 813/9/9
f 814/10/10 815/11/11 816/12/12
f 817/13/13 818/14/14 819/15/15
f 820/16/16 821/17/17 822/18/18
f 823/19/19 824/20/20 825/21/21
f 826/22/22 827/23/23 828/24/24
f 829/25/25 830/26/26 831/27/27
f 832/28/28 833/29/29 834/30/30
f 835/31/31 836/32/32 837/33/33
f 838/34/34 839/35/35 840/36/36
o a
v 31.156086309288938 49.642879890151804 18
v 31.156086309288938 25.642879890151804 18
v 31.156086309288938 49.642879890151804 -18
v 31.156086309288938 25.642879890151804 18
v 31.156086309288938 25.642879890151804 -18
v 31.156086309288938 49.642879890151804 -18
v -34.84391369071106 49.642879890151804 -18
v -34.84391369071106 25.642879890151804 -18
v -34.84391369071106 49.642879890151804 18
v -34.84391369071106 25.642879890151804 -18
v -34.84391369071106 25.642879890151804 18
v -34.84391369071106 49.642879890151804 18
v -34.84391369071106 49.642879890151804 -18
v -34.84391369071106 49.642879890151804 18
v 31.156086309288938 49.642879890151804 -18
v -34.84391369071106 49.642879890151804 18
v 31.156086309288938 49.642879890151804 18
v 31.156086309288938 49.642879890151804 -18
v -34.84391369071106 25.642879890151804 18
v -34.84391369071106 25.642879890151804 -18
v 31.156086309288938 25.642879890151804 18
v -34.84391369071106 25.642879890151804 -18
v 31.156086309288938 25.642879890151804 -18
v 31.156086309288938 25.642879890151804 18
v -34.84391369071106 49.642879890151804 18
v -34.84391369071106 25.642879890151804 18
v 31.156086309288938 49.642879890151804 18
v -34.84391369071106 25.642879890151804 18
v 31.156086309288938 25.642879890151804 18
v 31.156086309288938 49.642879890151804 18
v 31.156086309288938 49.642879890151804 -18
v 31.156086309288938 25.642879890151804 -18
v -34.84391369071106 49.642879890151804 -18
v 31.156086309288938 25.642879890151804 -18
v -34.84391369071106 25.642879890151804 -18
v -34.84391369071106 49.642879890151804 -18
vt 0 1
vt 0 0
vt 1 1
vt 0 0
vt 1 0
vt 1 1
vt 0 1
vt 0 0
vt 1 1
vt 0 0
vt 1 0
vt 1 1
vt 0 1
vt 0 0
vt 1 1
vt 0 0
vt 1 0
vt 1 1
vt 0 1
vt 0 0
vt 1 1
vt 0 0
vt 1 0
vt 1 1
vt 0 1
vt 0 0
vt 1 1
vt 0 0
vt 1 0
vt 1 1
vt 0 1
vt 0 0
vt 1 1
vt 0 0
vt 1 0
vt 1 1
vn 0.909090909090909 0 0
vn 0.909090909090909 0 0
vn 0.909090909090909 0 0
vn 0.909090909090909 0 0
vn 0.909090909090909 0 0
vn 0.909090909090909 0 0
vn -0.909090909090909 0 0
vn -0.909090909090909 0 0
vn -0.909090909090909 0 0
vn -0.909090909090909 0 0
vn -0.909090909090909 0 0
vn -0.909090909090909 0 0
vn 0 2.5 0
vn 0 2.5 0
vn 0 2.5 0
vn 0 2.5 0
vn 0 2.5 0
vn 0 2.5 0
vn 0 -2.5 0
vn 0 -2.5 0
vn 0 -2.5 0
vn 0 -2.5 0
vn 0 -2.5 0
vn 0 -2.5 0
vn 0 0 1.6666666666666667
vn 0 0 1.6666666666666667
vn 0 0 1.6666666666666667
vn 0 0 1.6666666666666667
vn 0 0 1.6666666666666667
vn 0 0 1.6666666666666667
vn 0 0 -1.6666666666666667
vn 0 0 -1.6666666666666667
vn 0 0 -1.6666666666666667
vn 0 0 -1.6666666666666667
vn 0 0 -1.6666666666666667
vn 0 0 -1.6666666666666667
f 841/37/37 842/38/38 843/39/39
f 844/40/40 845/41/41 846/42/42
f 847/43/43 848/44/44 849/45/45
f 850/46/46 851/47/47 852/48/48
f 853/49/49 854/50/50 855/51/51
f 856/52/52 857/53/53 858/54/54
f 859/55/55 860/56/56 861/57/57
f 862/58/58 863/59/59 864/60/60
f 865/61/61 866/62/62 867/63/63
f 868/64/64 869/65/65 870/66/66
f 871/67/67 872/68/68 873/69/69
f 874/70/70 875/71/71 876/72/72
