o road
v 1492 17 165
v 1492 -7 165
v 1492 17 -3
v 1492 -7 165
v 1492 -7 -3
v 1492 17 -3
v -8 17 -3
v -8 -7 -3
v -8 17 165
v -8 -7 -3
v -8 -7 165
v -8 17 165
v -8 17 -3
v -8 17 165
v 1492 17 -3
v -8 17 165
v 1492 17 165
v 1492 17 -3
v -8 -7 165
v -8 -7 -3
v 1492 -7 165
v -8 -7 -3
v 1492 -7 -3
v 1492 -7 165
v -8 17 165
v -8 -7 165
v 1492 17 165
v -8 -7 165
v 1492 -7 165
v 1492 17 165
v 1492 17 -3
v 1492 -7 -3
v -8 17 -3
v 1492 -7 -3
v -8 -7 -3
v -8 17 -3
vt 0 1
vt 0 0
vt 1 1
vt 0 0
vt 1 0
vt 1 1
vt 0 1
vt 0 0
vt 1 1
vt 0 0
vt 1 0
vt 1 1
vt 0 1
vt 0 0
vt 1 1
vt 0 0
vt 1 0
vt 1 1
vt 0 1
vt 0 0
vt 1 1
vt 0 0
vt 1 0
vt 1 1
vt 0 1
vt 0 0
vt 1 1
vt 0 0
vt 1 0
vt 1 1
vt 0 1
vt 0 0
vt 1 1
vt 0 0
vt 1 0
vt 1 1
vn 0.04 0 0
vn 0.04 0 0
vn 0.04 0 0
vn 0.04 0 0
vn 0.04 0 0
vn 0.04 0 0
vn -0.04 0 0
vn -0.04 0 0
vn -0.04 0 0
vn -0.04 0 0
vn -0.04 0 0
vn -0.04 0 0
vn 0 2.5000000000000004 0
vn 0 2.5000000000000004 0
vn 0 2.5000000000000004 0
vn 0 2.5000000000000004 0
vn 0 2.5000000000000004 0
vn 0 2.5000000000000004 0
vn 0 -2.5000000000000004 0
vn 0 -2.5000000000000004 0
vn 0 -2.5000000000000004 0
vn 0 -2.5000000000000004 0
vn 0 -2.5000000000000004 0
vn 0 -2.5000000000000004 0
vn 0 0 0.3571428571428572
vn 0 0 0.3571428571428572
vn 0 0 0.3571428571428572
vn 0 0 0.3571428571428572
vn 0 0 0.3571428571428572
vn 0 0 0.3571428571428572
vn 0 0 -0.3571428571428572
vn 0 0 -0.3571428571428572
vn 0 0 -0.3571428571428572
vn 0 0 -0.3571428571428572
vn 0 0 -0.3571428571428572
vn 0 0 -0.3571428571428572
f 1/1/1 2/2/2 3/3/3
f 4/4/4 5/5/5 6/6/6
f 7/7/7 8/8/8 9/9/9
f 10/10/10 11/11/11 12/12/12
f 13/13/13 14/14/14 15/15/15
f 16/16/16 17/17/17 18/18/18
f 19/19/19 20/20/20 21/21/21
f 22/22/22 23/23/23 24/24/24
f 25/25/25 26/26/26 27/27/27
f 28/28/28 29/29/29 30/30/30
f 31/31/31 32/32/32 33/33/33
f 34/34/34 35/35/35 36/36/36
o 
v 1492 17 165
v -8 17 165
v -8 -7 165
v 1492 -7 165
v 1492 17 -3
v -8 17 -3
v -8 -7 -3
v 1492 -7 -3
l 37 38
l 39 40
l 41 42
l 43 44
o thing
v 318 99 53
v 318 51 53
v 318 99 -1
v 318 51 53
v 318 51 -1
v 318 99 -1
v 282 99 -1
v 282 51 -1
v 282 99 53
v 282 51 -1
v 282 51 53
v 282 99 53
v 282 99 -1
v 282 99 53
v 318 99 -1
v 282 99 53
v 318 99 53
v 318 99 -1
v 282 51 53
v 282 51 -1
v 318 51 53
v 282 51 -1
v 318 51 -1
v 318 51 53
v 282 99 53
v 282 51 53
v 318 99 53
v 282 51 53
v 318 51 53
v 318 99 53
v 318 99 -1
v 318 51 -1
v 282 99 -1
v 318 51 -1
v 282 51 -1
v 282 99 -1
vt 0 1
vt 0 0
vt 1 1
vt 0 0
vt 1 0
vt 1 1
vt 0 1
vt 0 0
vt 1 1
vt 0 0
vt 1 0
vt 1 1
vt 0 1
vt 0 0
vt 1 1
vt 0 0
vt 1 0
vt 1 1
vt 0 1
vt 0 0
vt 1 1
vt 0 0
vt 1 0
vt 1 1
vt 0 1
vt 0 0
vt 1 1
vt 0 0
vt 1 0
vt 1 1
vt 0 1
vt 0 0
vt 1 1
vt 0 0
vt 1 0
vt 1 1
vn 1.6666666666666665 0 0
vn 1.6666666666666665 0 0
vn 1.6666666666666665 0 0
vn 1.6666666666666665 0 0
vn 1.6666666666666665 0 0
vn 1.6666666666666665 0 0
vn -1.6666666666666665 0 0
vn -1.6666666666666665 0 0
vn -1.6666666666666665 0 0
vn -1.6666666666666665 0 0
vn -1.6666666666666665 0 0
vn -1.6666666666666665 0 0
vn 0 1.2499999999999998 0
vn 0 1.2499999999999998 0
vn 0 1.2499999999999998 0
vn 0 1.2499999999999998 0
vn 0 1.2499999999999998 0
vn 0 1.2499999999999998 0
vn 0 -1.2499999999999998 0
vn 0 -1.2499999999999998 0
vn 0 -1.2499999999999998 0
vn 0 -1.2499999999999998 0
vn 0 -1.2499999999999998 0
vn 0 -1.2499999999999998 0
vn 0 0 1.111111111111111
vn 0 0 1.111111111111111
vn 0 0 1.111111111111111
vn 0 0 1.111111111111111
vn 0 0 1.111111111111111
vn 0 0 1.111111111111111
vn 0 0 -1.111111111111111
vn 0 0 -1.111111111111111
vn 0 0 -1.111111111111111
vn 0 0 -1.111111111111111
vn 0 0 -1.111111111111111
vn 0 0 -1.111111111111111
f 45/37/37 46/38/38 47/39/39
f 48/40/40 49/41/41 50/42/42
f 51/43/43 52/44/44 53/45/45
f 54/46/46 55/47/47 56/48/48
f 57/49/49 58/50/50 59/51/51
f 60/52/52 61/53/53 62/54/54
f 63/55/55 64/56/56 65/57/57
f 66/58/58 67/59/59 68/60/60
f 69/61/61 70/62/62 71/63/63
f 72/64/64 73/65/65 74/66/66
f 75/67/67 76/68/68 77/69/69
f 78/70/70 79/71/71 80/72/72
o 
v 318 99 53
v 282 99 53
v 282 51 53
v 318 51 53
v 318 99 -1
v 282 99 -1
v 282 51 -1
v 318 51 -1
l 81 82
l 83 84
l 85 86
l 87 88
